<svg width="240" height="64" viewBox="0 0 240 64" fill="none" xmlns="http://www.w3.org/2000/svg">
<path d="M82.08 45L73.2 17H78.88L86.48 41.64H86.64L94.08 17H99.76L90.92 45H82.08Z" fill="black"/>
<path d="M105.494 45.48C103.921 45.48 102.614 45.2133 101.574 44.68C100.561 44.1467 99.8141 43.4267 99.3341 42.52C98.8541 41.6133 98.6141 40.6133 98.6141 39.52C98.6141 38.2933 98.9207 37.2133 99.5341 36.28C100.174 35.3467 101.134 34.6267 102.414 34.12C103.694 33.5867 105.307 33.32 107.254 33.32H112.254C112.254 32.3333 112.107 31.52 111.814 30.88C111.547 30.24 111.121 29.76 110.534 29.44C109.974 29.12 109.254 28.96 108.374 28.96C107.334 28.96 106.441 29.2 105.694 29.68C104.974 30.1333 104.521 30.8533 104.334 31.84H99.0941C99.2541 30.3733 99.7341 29.1067 100.534 28.04C101.361 26.9733 102.441 26.1467 103.774 25.56C105.134 24.9733 106.667 24.68 108.374 24.68C110.294 24.68 111.947 25 113.334 25.64C114.721 26.2533 115.787 27.1733 116.534 28.4C117.281 29.6 117.654 31.0667 117.654 32.8V45H113.174L112.614 41.92H112.454C112.027 42.5067 111.561 43.0267 111.054 43.48C110.574 43.9333 110.041 44.3067 109.454 44.6C108.867 44.8933 108.241 45.1067 107.574 45.24C106.907 45.4 106.214 45.48 105.494 45.48ZM107.254 41.32C108.001 41.32 108.641 41.2 109.174 40.96C109.734 40.6933 110.214 40.3467 110.614 39.92C111.014 39.4933 111.321 39 111.534 38.44C111.774 37.8533 111.934 37.2533 112.014 36.64H107.854C107.027 36.64 106.347 36.7467 105.814 36.96C105.307 37.1467 104.934 37.4267 104.694 37.8C104.454 38.1467 104.334 38.56 104.334 39.04C104.334 39.52 104.454 39.9333 104.694 40.28C104.934 40.6267 105.281 40.8933 105.734 41.08C106.187 41.24 106.694 41.32 107.254 41.32Z" fill="black"/>
<path d="M120.655 45V25.16H125.255L125.735 29.52H125.895C126.481 28.1067 127.121 27.0667 127.815 26.4C128.508 25.7067 129.295 25.2533 130.175 25.04C131.081 24.8 132.095 24.68 133.215 24.68V30.4H131.735C130.828 30.4 130.015 30.5067 129.295 30.72C128.601 30.9067 128.015 31.2267 127.535 31.68C127.055 32.1067 126.681 32.68 126.415 33.4C126.175 34.12 126.055 34.9867 126.055 36V45H120.655Z" fill="black"/>
<path d="M135.67 45V25.16H141.07V45H135.67ZM138.39 22.64C137.403 22.64 136.59 22.36 135.95 21.8C135.336 21.2133 135.03 20.48 135.03 19.6C135.03 18.72 135.336 17.9867 135.95 17.4C136.59 16.8133 137.403 16.52 138.39 16.52C139.376 16.52 140.176 16.8133 140.79 17.4C141.403 17.9867 141.71 18.72 141.71 19.6C141.71 20.4533 141.403 21.1733 140.79 21.76C140.176 22.3467 139.376 22.64 138.39 22.64Z" fill="black"/>
<path d="M151.393 45.48C149.819 45.48 148.513 45.2133 147.473 44.68C146.459 44.1467 145.712 43.4267 145.232 42.52C144.752 41.6133 144.512 40.6133 144.512 39.52C144.512 38.2933 144.819 37.2133 145.432 36.28C146.072 35.3467 147.033 34.6267 148.312 34.12C149.593 33.5867 151.206 33.32 153.152 33.32H158.152C158.152 32.3333 158.006 31.52 157.712 30.88C157.446 30.24 157.019 29.76 156.432 29.44C155.872 29.12 155.153 28.96 154.273 28.96C153.233 28.96 152.339 29.2 151.592 29.68C150.872 30.1333 150.419 30.8533 150.232 31.84H144.992C145.152 30.3733 145.632 29.1067 146.432 28.04C147.259 26.9733 148.339 26.1467 149.673 25.56C151.033 24.9733 152.566 24.68 154.273 24.68C156.193 24.68 157.846 25 159.232 25.64C160.619 26.2533 161.686 27.1733 162.432 28.4C163.179 29.6 163.553 31.0667 163.553 32.8V45H159.072L158.512 41.92H158.352C157.926 42.5067 157.459 43.0267 156.952 43.48C156.472 43.9333 155.939 44.3067 155.353 44.6C154.766 44.8933 154.139 45.1067 153.473 45.24C152.806 45.4 152.113 45.48 151.393 45.48ZM153.152 41.32C153.899 41.32 154.539 41.2 155.072 40.96C155.632 40.6933 156.112 40.3467 156.512 39.92C156.912 39.4933 157.219 39 157.432 38.44C157.672 37.8533 157.833 37.2533 157.913 36.64H153.753C152.926 36.64 152.246 36.7467 151.712 36.96C151.206 37.1467 150.832 37.4267 150.592 37.8C150.352 38.1467 150.232 38.56 150.232 39.04C150.232 39.52 150.352 39.9333 150.592 40.28C150.832 40.6267 151.179 40.8933 151.633 41.08C152.086 41.24 152.592 41.32 153.152 41.32Z" fill="black"/>
<path d="M179.189 45.48C178.096 45.48 177.083 45.32 176.149 45C175.243 44.68 174.429 44.2267 173.709 43.64C173.016 43.0533 172.416 42.3467 171.909 41.52H171.749L171.429 45H166.909V17H172.309V27.72C172.976 26.8933 173.869 26.1867 174.989 25.6C176.136 24.9867 177.483 24.68 179.029 24.68C180.976 24.68 182.656 25.1333 184.069 26.04C185.483 26.92 186.576 28.1467 187.349 29.72C188.123 31.2667 188.509 33.0533 188.509 35.08C188.509 37.08 188.123 38.8667 187.349 40.44C186.576 42.0133 185.496 43.2533 184.109 44.16C182.723 45.04 181.083 45.48 179.189 45.48ZM177.629 41.04C178.723 41.04 179.669 40.7867 180.469 40.28C181.296 39.7467 181.923 39.04 182.349 38.16C182.803 37.28 183.029 36.24 183.029 35.04C183.029 33.8667 182.803 32.84 182.349 31.96C181.923 31.0533 181.296 30.3467 180.469 29.84C179.669 29.3333 178.723 29.08 177.629 29.08C176.563 29.08 175.616 29.3333 174.789 29.84C173.963 30.3467 173.323 31.0533 172.869 31.96C172.416 32.84 172.189 33.88 172.189 35.08C172.189 36.2533 172.416 37.2933 172.869 38.2C173.323 39.08 173.963 39.7733 174.789 40.28C175.616 40.7867 176.563 41.04 177.629 41.04Z" fill="black"/>
<path d="M191.323 45V17H196.723V45H191.323Z" fill="black"/>
<path d="M209.868 45.48C207.841 45.48 206.041 45.0533 204.468 44.2C202.921 43.3467 201.708 42.1467 200.828 40.6C199.948 39.0533 199.508 37.28 199.508 35.28C199.508 33.2 199.934 31.3733 200.788 29.8C201.668 28.2 202.881 26.9467 204.428 26.04C206.001 25.1333 207.814 24.68 209.868 24.68C211.868 24.68 213.614 25.1067 215.108 25.96C216.601 26.8133 217.774 27.9867 218.628 29.48C219.481 30.9467 219.908 32.6133 219.908 34.48C219.908 34.7467 219.894 35.0533 219.868 35.4C219.868 35.72 219.854 36.0533 219.828 36.4H203.348V33.08H214.428C214.348 31.8267 213.881 30.8267 213.028 30.08C212.201 29.3333 211.161 28.96 209.908 28.96C208.974 28.96 208.121 29.1733 207.348 29.6C206.574 30 205.961 30.6267 205.508 31.48C205.054 32.3067 204.828 33.36 204.828 34.64V35.8C204.828 36.8933 205.041 37.84 205.468 38.64C205.894 39.4133 206.481 40.0133 207.228 40.44C208.001 40.8667 208.868 41.08 209.828 41.08C210.814 41.08 211.641 40.8667 212.308 40.44C212.974 39.9867 213.481 39.4133 213.828 38.72H219.308C218.934 39.9733 218.308 41.12 217.428 42.16C216.548 43.1733 215.468 43.9867 214.188 44.6C212.908 45.1867 211.468 45.48 209.868 45.48Z" fill="black"/>
<path d="M230.615 45.48C228.855 45.48 227.295 45.1867 225.935 44.6C224.602 44.0133 223.522 43.2133 222.695 42.2C221.895 41.16 221.429 39.9867 221.295 38.68H226.695C226.802 39.16 227.015 39.6133 227.335 40.04C227.655 40.4667 228.082 40.8133 228.615 41.08C229.175 41.32 229.815 41.44 230.535 41.44C231.282 41.44 231.882 41.3467 232.335 41.16C232.789 40.9467 233.122 40.68 233.335 40.36C233.575 40.04 233.695 39.6933 233.695 39.32C233.695 38.8133 233.522 38.4267 233.175 38.16C232.855 37.8667 232.375 37.6133 231.735 37.4C231.122 37.1867 230.389 36.96 229.535 36.72C228.655 36.48 227.762 36.2267 226.855 35.96C225.975 35.6933 225.162 35.36 224.415 34.96C223.669 34.5333 223.069 34 222.615 33.36C222.189 32.6933 221.975 31.8667 221.975 30.88C221.975 29.7333 222.295 28.6933 222.935 27.76C223.575 26.8267 224.495 26.08 225.695 25.52C226.922 24.96 228.375 24.68 230.055 24.68C232.455 24.68 234.362 25.2267 235.775 26.32C237.215 27.4133 238.055 28.92 238.295 30.84H233.215C233.082 30.1733 232.735 29.6533 232.175 29.28C231.642 28.9067 230.935 28.72 230.055 28.72C229.122 28.72 228.402 28.9067 227.895 29.28C227.415 29.6267 227.175 30.0533 227.175 30.56C227.175 30.9333 227.335 31.2533 227.655 31.52C227.975 31.76 228.442 31.9867 229.055 32.2C229.695 32.3867 230.455 32.6 231.335 32.84C232.749 33.2133 234.042 33.6133 235.215 34.04C236.389 34.4667 237.322 35.0533 238.015 35.8C238.709 36.52 239.055 37.5467 239.055 38.88C239.082 40.16 238.749 41.2933 238.055 42.28C237.362 43.2667 236.389 44.0533 235.135 44.64C233.882 45.2 232.375 45.48 230.615 45.48Z" fill="black"/>
<path d="M47 0H17C7.61116 0 0 7.61116 0 17V47C0 56.3888 7.61116 64 17 64H47C56.3888 64 64 56.3888 64 47V17C64 7.61116 56.3888 0 47 0Z" fill="black"/>
<path d="M27.16 45.456C25.2093 45.456 23.436 45.0633 21.84 44.278C20.244 43.4927 18.9773 42.3147 18.04 40.744C17.1027 39.1733 16.634 37.172 16.634 34.74V18.4H21.764V34.778C21.764 36.0953 21.9793 37.21 22.41 38.122C22.8407 39.0087 23.474 39.6673 24.31 40.098C25.146 40.5287 26.134 40.744 27.274 40.744C28.4393 40.744 29.4273 40.5287 30.238 40.098C31.0487 39.6673 31.6693 39.0087 32.1 38.122C32.556 37.21 32.784 36.0953 32.784 34.778V18.4H37.914V34.74C37.914 37.172 37.42 39.1733 36.432 40.744C35.4693 42.3147 34.1773 43.4927 32.556 44.278C30.9347 45.0633 29.136 45.456 27.16 45.456Z" fill="white"/>
<path d="M41.3162 45V18.4H46.4462V45H41.3162Z" fill="white"/>
</svg>
